<?xml version="1.0" encoding="UTF-8"?><svg id="Layer_2" xmlns="http://www.w3.org/2000/svg" viewBox="0 0 100.75 136.72"><defs><style>.cls-1{fill:#030301;}</style></defs><g id="Layer_1-2"><path class="cls-1" d="m.09,39.44C1.18,22.21,14.08,16.16,27.78,9.08,35.45,5.11,43.11.08,51.75,0c12-.11,19.43,9.3,29.88,13.11,5.06,1.85,10.91,2.48,14.65,6.35,6.3,6.5,4.2,19.49,3.86,27.68-.63,15.49-2.8,30.96-2.32,46.48.38,12.26,1.94,27.15-8.28,36.16-9.63,8.49-25.59,9.13-36.2,2.25-5.46-3.54-9.91-8.44-15.48-11.82-5.18-3.14-11.34-2.7-16.39-5.65-6.51-3.81-6.76-13.03-8.27-19.58-2.22-9.66-5.73-18.89-8.68-28.33C1.89,58.2-.48,48.46.09,39.44Z"/></g></svg>