<?xml version="1.0" encoding="UTF-8"?><svg id="Layer_2" xmlns="http://www.w3.org/2000/svg" viewBox="0 0 116.19 144.94"><defs><style>.cls-1{fill:none;stroke:#fff;stroke-linecap:round;stroke-miterlimit:10;stroke-width:12px;}.cls-2{fill:#030301;}</style></defs><g id="Layer_1-2"><path class="cls-2" d="m.52,9.68c2.05-5.04,9.12-4.73,13.61-5.06C36.37,3,58.7.61,80.99.03c3.25-.09,6.57-.01,9.62,1.12,5.53,2.06,9.49,9.45,14.24,13.25,4.37,3.49,10.77,7.93,9.79,14.38-3.52,23.17-2.82,46.76-1.11,70.06.89,12.06,8.17,36.96-5.9,44.21-5.24,2.7-13.43,1.23-19.3,1.29-7.44.06-14.87.13-22.31.19l-44.61.38c-.89,0-1.78.02-2.68.02-5.94.05-11.99-.5-14.27-6.93-1.18-3.32-1.01-6.94-.89-10.45.54-15.32-.36-30.54-.96-45.84C1.72,59.29.93,36.86.04,14.43c-.06-1.6-.12-3.26.49-4.75Z"/><path class="cls-1" d="m22.95,44.24c19.68.37,39.38-.1,59.02-1.4"/><path class="cls-1" d="m27.87,73.3c17.13-.19,34.26-.39,51.38-.58"/><path class="cls-1" d="m28.42,104.26c19.13.64,38.3.34,57.4-.9"/></g></svg>